# xmcd CD database file
#
# Track frame offsets:
#	182
#	9995
#	22947
#	42787
#	55537
#	67517
#	78627
#	94530
#	105647
#	116507
#	127307
#	137610
#
# Disc length: 2059 seconds
#
# Revision: 2
# Processed by: cddbd v1.5.1PL0 Copyright (c) Steve Scherf et al.
# Submitted via: CDex 1.51
#
DISCID=8908090c
DTITLE=Junior Brown - Junior Brown/12 shades of brown
DYEAR=1993
DGENRE=Country
TTITLE0=My Baby Don't Dance To Nothing But Earnest Tubb
TTITLE1=Baby Let The Bad Times Be
TTITLE2=Freeborn Man
TTITLE3=They Don't Choose To Live That Way
TTITLE4=Too Many Nights In A Roadhouse
TTITLE5=Hillbilly Hula Gal
TTITLE6=A Way to Survive
TTITLE7=Broke Down South of Dallas
TTITLE8=What's Left Just Won't Go Right
TTITLE9=Moan All Night Long
TTITLE10=Coconut Island
TTITLE11=Don't Sell the Farm
EXTD=YEAR: 1993
EXTT0=
EXTT1=
EXTT2=
EXTT3=
EXTT4=
EXTT5=
EXTT6=
EXTT7=
EXTT8=
EXTT9=
EXTT10=
EXTT11=
PLAYORDER=
